<?xml version="1.0" encoding="UTF-8"?> <svg xmlns="http://www.w3.org/2000/svg" width="236" height="115" viewBox="0 0 236 115" fill="none"><path d="M69.0169 108.803C68.0531 108.803 67.4629 108.056 67.4629 106.756C67.4629 105.456 68.0905 104.709 69.0916 104.709C69.4178 104.689 69.7387 104.797 69.9878 105.008C70.2369 105.22 70.3948 105.519 70.4289 105.844H71.3254C71.3051 105.574 71.2302 105.31 71.1053 105.069C70.9805 104.828 70.8081 104.615 70.5987 104.443C70.3893 104.271 70.1471 104.142 69.8868 104.066C69.6265 103.99 69.3535 103.967 69.0841 103.999C67.5899 103.999 66.5888 105.097 66.5888 106.845C66.5888 108.481 67.5526 109.527 69.0393 109.527C69.3842 109.553 69.7303 109.494 70.047 109.355C70.3636 109.215 70.641 109 70.8547 108.728C71.1449 108.369 71.3218 107.932 71.3627 107.473H70.4886C70.4693 107.844 70.3035 108.193 70.0276 108.442C69.7517 108.691 69.3882 108.821 69.0169 108.803Z" fill="white"></path><path d="M94.6195 103.999C94.2578 103.98 93.8977 104.059 93.5769 104.227C93.2562 104.395 92.9866 104.647 92.7966 104.955V104.148H91.9972V109.378H92.8489V106.868C92.8102 106.414 92.874 105.957 93.0357 105.53C93.1536 105.284 93.341 105.078 93.5746 104.938C93.8083 104.797 94.078 104.728 94.3506 104.738C94.5634 104.718 94.7773 104.764 94.9631 104.869C95.149 104.975 95.2977 105.135 95.389 105.329C95.4795 105.652 95.5124 105.988 95.4861 106.322V109.4H96.3378V106.023C96.3794 105.596 96.3046 105.165 96.1212 104.776C95.9666 104.521 95.7446 104.313 95.4796 104.176C95.2147 104.039 94.9171 103.978 94.6195 103.999Z" fill="white"></path><path d="M64.9452 102.154H64.0936V103.199H64.9452V102.154Z" fill="white"></path><path d="M89.121 106.375C89.1874 106.934 89.0942 107.502 88.852 108.011C88.5831 108.496 88.0302 108.758 87.1487 108.758C86.0654 108.758 85.4154 108.28 85.266 107.383C85.2108 107.06 85.1933 106.732 85.2137 106.404V102.183H84.2425V106.382C84.1715 107.077 84.3039 107.778 84.6235 108.399C84.8959 108.808 85.2759 109.133 85.7216 109.338C86.1673 109.544 86.6612 109.622 87.1487 109.565C88.6951 109.565 89.6215 108.96 89.9428 107.727C90.0473 107.292 90.0851 106.843 90.0548 106.397V102.183H89.0986L89.121 106.375Z" fill="white"></path><path d="M79.6255 108.227C79.6255 108.227 79.6255 108.048 79.6255 107.891C79.6255 107.734 79.6255 107.421 79.6255 107.062C79.6255 106.494 79.6255 106.128 79.6255 105.792C79.6255 105.045 79.5358 104.761 79.2669 104.507C78.807 104.15 78.2345 103.97 77.6532 103.999C76.2786 103.999 75.4642 104.656 75.4119 105.784H76.2561C76.3308 105.037 76.7119 104.709 77.5411 104.709C78.3704 104.709 78.7215 105.015 78.7215 105.62C78.7215 106.061 78.5049 106.233 77.8026 106.315L77.0555 106.412C76.7759 106.441 76.5003 106.502 76.2337 106.591C75.9217 106.693 75.6517 106.894 75.4653 107.164C75.279 107.434 75.1867 107.758 75.2027 108.085C75.2011 108.298 75.245 108.509 75.3314 108.704C75.4179 108.898 75.545 109.072 75.7042 109.214C75.8634 109.355 76.051 109.461 76.2544 109.524C76.4578 109.587 76.6724 109.606 76.8837 109.58C77.2436 109.595 77.6022 109.526 77.9314 109.38C78.2605 109.233 78.5514 109.013 78.7813 108.735C78.7721 108.836 78.7851 108.937 78.8194 109.032C78.8537 109.127 78.9084 109.213 78.9797 109.284C79.051 109.355 79.1372 109.41 79.232 109.444C79.3268 109.479 79.428 109.492 79.5284 109.482C79.7348 109.485 79.9399 109.449 80.1335 109.378V108.706C80.0618 108.742 79.9823 108.76 79.9019 108.758C79.76 108.735 79.6255 108.586 79.6255 108.227ZM78.8037 107.435C78.8416 107.696 78.7832 107.962 78.6393 108.183C78.4674 108.414 78.2411 108.599 77.9804 108.721C77.7197 108.844 77.4328 108.9 77.1452 108.885C77.0184 108.902 76.8895 108.892 76.7671 108.855C76.6447 108.818 76.5315 108.755 76.4353 108.671C76.3391 108.587 76.262 108.483 76.2092 108.366C76.1564 108.25 76.1291 108.124 76.1292 107.996C76.1245 107.841 76.1643 107.689 76.2438 107.557C76.3232 107.424 76.439 107.317 76.5774 107.249C76.9027 107.095 77.2563 107.011 77.6158 107.002C78.3629 106.905 78.5273 106.875 78.7738 106.688L78.8037 107.435Z" fill="white"></path><path d="M73.7235 102.154H72.8718V103.199H73.7235V102.154Z" fill="white"></path><path d="M73.7235 104.148H72.8718V109.378H73.7235V104.148Z" fill="white"></path><path d="M55.7337 102.587H54.882V104.148H54.0079V104.85H54.882V108.362C54.8701 108.583 54.9031 108.804 54.9791 109.012C55.1435 109.363 55.4797 109.497 56.1147 109.497C56.3323 109.502 56.5498 109.487 56.7647 109.453V108.705C56.6141 108.749 56.4582 108.772 56.3015 108.773C55.8159 108.773 55.7262 108.653 55.7262 107.958V104.85H56.7796V104.148H55.7262L55.7337 102.587Z" fill="white"></path><path d="M39.8955 102.542C39.3952 102.226 38.8026 102.089 38.2145 102.154H35.3457V109.378H36.302V106.389H38.2593C38.8265 106.453 39.3985 106.322 39.8805 106.016C40.1607 105.819 40.3855 105.554 40.5334 105.245C40.6812 104.936 40.7471 104.594 40.7247 104.253C40.7469 103.92 40.6821 103.588 40.5367 103.288C40.3913 102.988 40.1703 102.731 39.8955 102.542ZM39.2754 105.381C38.9356 105.59 38.5367 105.682 38.1398 105.642H36.302V102.983H37.9979C38.4107 102.932 38.8293 103.005 39.2006 103.192C39.3818 103.305 39.5298 103.464 39.6295 103.653C39.7293 103.842 39.7772 104.054 39.7684 104.268C39.7784 104.478 39.739 104.687 39.6534 104.879C39.5677 105.071 39.4383 105.241 39.2754 105.373V105.381Z" fill="white"></path><path d="M24.6997 102.154H23.848V109.37H24.6997V102.154Z" fill="white"></path><path d="M44.3854 103.999C42.7941 103.999 41.808 105.052 41.808 106.785C41.7717 107.138 41.811 107.494 41.9235 107.83C42.036 108.166 42.219 108.474 42.4602 108.734C42.7014 108.994 42.9952 109.199 43.3221 109.335C43.649 109.472 44.0013 109.538 44.3555 109.527C45.9394 109.527 46.8732 108.496 46.8732 106.778C46.9191 106.046 46.684 105.325 46.2158 104.761C45.9815 104.512 45.6974 104.316 45.3819 104.184C45.0665 104.053 44.727 103.99 44.3854 103.999ZM44.3854 108.803C43.3545 108.803 42.7194 108.056 42.7194 106.756C42.7194 105.456 43.3619 104.716 44.4078 104.716C45.4538 104.716 46.029 105.508 46.029 106.778C46.029 108.048 45.394 108.803 44.3555 108.803H44.3854Z" fill="white"></path><path d="M10.0419 102.154H7.45696V109.378H10.1465C10.5565 109.428 10.9725 109.382 11.3615 109.243C11.7505 109.104 12.1019 108.877 12.3877 108.578C12.7464 108.172 13.0209 107.699 13.1953 107.186C13.3697 106.673 13.4406 106.131 13.4038 105.59C13.4347 105.083 13.356 104.574 13.1729 104.1C12.9898 103.625 12.7068 103.196 12.3429 102.841C12.0261 102.576 11.6587 102.379 11.2631 102.26C10.8675 102.142 10.452 102.106 10.0419 102.154ZM11.7826 107.936C11.3866 108.399 10.9608 108.541 9.96716 108.541H8.40575V102.983H10.0643C10.3621 102.957 10.662 102.994 10.9449 103.09C11.2278 103.187 11.4876 103.341 11.7079 103.543C11.9828 103.829 12.192 104.172 12.321 104.548C12.45 104.923 12.4957 105.322 12.455 105.717C12.5016 106.514 12.2603 107.302 11.7751 107.936H11.7826Z" fill="white"></path><path d="M19.3879 105.426C19.2198 104.994 18.9218 104.625 18.5351 104.369C18.1485 104.114 17.6921 103.984 17.2288 103.999C15.8019 103.999 14.7859 105.157 14.7859 106.785C14.7859 108.414 15.7347 109.527 17.2513 109.527C17.7966 109.577 18.3399 109.414 18.7684 109.073C19.1969 108.732 19.4777 108.239 19.5523 107.697H18.7081C18.6534 108.02 18.4813 108.312 18.2249 108.516C17.9684 108.72 17.6457 108.822 17.3185 108.803C16.2576 108.803 15.7048 108.197 15.6749 106.972H19.6046C19.631 106.448 19.5574 105.923 19.3879 105.426ZM15.6525 106.27C15.7795 105.254 16.3174 104.709 17.1467 104.709C17.3487 104.708 17.5486 104.749 17.7344 104.828C17.9202 104.908 18.0881 105.024 18.2277 105.17C18.3674 105.316 18.476 105.488 18.547 105.678C18.618 105.867 18.6499 106.068 18.6408 106.27H15.6525Z" fill="white"></path><path d="M99.0572 104.148H98.2055V109.378H99.0572V104.148Z" fill="white"></path><path d="M61.4638 102.579C61.2771 102.833 61.2397 103.05 61.2397 103.805V104.148H60.3357V104.85H61.2173V109.378H62.069V104.85H63.0775V104.148H62.069V103.543C62.069 102.945 62.1885 102.796 62.7189 102.796C62.8827 102.795 63.0459 102.815 63.2045 102.856V102.109C63.0214 102.082 62.8368 102.067 62.6517 102.064C62.4264 102.044 62.1996 102.08 61.9921 102.17C61.7845 102.26 61.6029 102.401 61.4638 102.579Z" fill="white"></path><path d="M59.0433 102.154H58.1916V103.199H59.0433V102.154Z" fill="white"></path><path d="M51.1018 103.999C50.7412 103.98 50.3822 104.06 50.0628 104.228C49.7433 104.396 49.4751 104.647 49.2863 104.955V104.148H48.4795V109.378H49.3386V106.868C49.3021 106.414 49.3633 105.958 49.5179 105.53C49.6358 105.284 49.8232 105.078 50.0569 104.938C50.2905 104.797 50.5602 104.728 50.8328 104.738C51.0456 104.718 51.2595 104.764 51.4454 104.869C51.6312 104.975 51.78 105.135 51.8713 105.329C51.9618 105.652 51.9946 105.988 51.9683 106.322V109.4H52.82V106.023C52.8617 105.596 52.7868 105.165 52.6034 104.776C52.4494 104.52 52.2276 104.312 51.9625 104.175C51.6974 104.038 51.3994 103.977 51.1018 103.999Z" fill="white"></path><path d="M64.9452 104.148H64.0936V109.378H64.9452V104.148Z" fill="white"></path><path d="M59.0433 104.148H58.1916V109.378H59.0433V104.148Z" fill="white"></path><path d="M30.6017 108.227C30.6017 108.227 30.6017 108.048 30.6017 107.891C30.6017 107.734 30.6017 107.421 30.6017 107.062C30.6017 106.494 30.6017 106.128 30.6017 105.792C30.6017 105.045 30.5121 104.761 30.2431 104.507C29.7832 104.15 29.2107 103.97 28.6294 103.999C27.2548 103.999 26.4404 104.656 26.3881 105.784H27.2323C27.3071 105.037 27.6881 104.709 28.5248 104.709C29.3615 104.709 29.7052 105.015 29.7052 105.62C29.7052 106.061 29.4886 106.233 28.7788 106.315L28.0317 106.412C27.7521 106.441 27.4765 106.502 27.2099 106.591C26.895 106.687 26.6221 106.887 26.4361 107.159C26.25 107.43 26.162 107.757 26.1864 108.085C26.1849 108.298 26.2286 108.508 26.3146 108.702C26.4007 108.896 26.5271 109.069 26.6854 109.211C26.8438 109.352 27.0304 109.458 27.2329 109.522C27.4354 109.585 27.6492 109.605 27.8599 109.58C28.2199 109.595 28.5787 109.527 28.9079 109.381C29.2372 109.234 29.528 109.013 29.7575 108.735C29.7483 108.836 29.7613 108.937 29.7956 109.032C29.8299 109.127 29.8847 109.213 29.9559 109.284C30.0272 109.355 30.1134 109.41 30.2082 109.444C30.303 109.479 30.4042 109.492 30.5046 109.482C30.711 109.485 30.9161 109.449 31.1097 109.378V108.706C31.0383 108.742 30.9585 108.76 30.8781 108.758C30.6988 108.735 30.6017 108.586 30.6017 108.227ZM29.7799 107.435C29.8222 107.696 29.7634 107.963 29.6156 108.183C29.4436 108.414 29.2173 108.599 28.9566 108.721C28.6959 108.844 28.409 108.9 28.1214 108.885C27.9946 108.902 27.8657 108.892 27.7433 108.855C27.6209 108.818 27.5077 108.755 27.4115 108.671C27.3152 108.587 27.2382 108.483 27.1854 108.366C27.1326 108.25 27.1053 108.124 27.1053 107.996C27.1007 107.841 27.1405 107.689 27.22 107.557C27.2994 107.424 27.4152 107.317 27.5536 107.249C27.8792 107.096 28.2327 107.012 28.592 107.002C29.3391 106.905 29.5035 106.875 29.75 106.688L29.7799 107.435Z" fill="white"></path><path d="M220.033 104.148H219.181V109.378H220.033V104.148Z" fill="white"></path><path d="M149.478 108.728C147.984 108.728 147.072 107.57 147.072 105.784C147.058 105.108 147.231 104.441 147.573 103.857C147.769 103.516 148.056 103.237 148.401 103.051C148.747 102.865 149.138 102.779 149.53 102.803C149.992 102.77 150.451 102.901 150.825 103.175C151.199 103.449 151.463 103.847 151.57 104.298H152.526C152.475 103.784 152.258 103.301 151.906 102.923C151.607 102.6 151.241 102.346 150.833 102.181C150.425 102.015 149.985 101.942 149.545 101.967C149.098 101.946 148.651 102.021 148.234 102.187C147.818 102.353 147.442 102.607 147.132 102.93C146.434 103.707 146.069 104.726 146.116 105.769C146.116 108.063 147.409 109.505 149.456 109.505C149.853 109.533 150.251 109.48 150.627 109.349C151.003 109.218 151.348 109.012 151.641 108.742C151.935 108.473 152.17 108.146 152.332 107.783C152.494 107.419 152.581 107.027 152.586 106.629H151.637C151.48 108.011 150.733 108.728 149.478 108.728Z" fill="white"></path><path d="M167.02 101.982H165.959L165.212 103.416H165.802L167.02 101.982Z" fill="white"></path><path d="M161.103 102.587H160.251V104.148H159.377V104.85H160.251V108.362C160.239 108.583 160.272 108.804 160.348 109.012C160.513 109.363 160.849 109.497 161.484 109.497C161.701 109.502 161.919 109.487 162.134 109.453V108.705C161.983 108.749 161.827 108.772 161.671 108.773C161.185 108.773 161.095 108.653 161.095 107.958V104.85H162.149V104.148H161.095L161.103 102.587Z" fill="white"></path><path d="M220.033 102.154H219.181V103.199H220.033V102.154Z" fill="white"></path><path d="M200.788 105.426C200.62 104.994 200.322 104.625 199.935 104.369C199.549 104.114 199.092 103.984 198.629 103.999C197.202 103.999 196.186 105.157 196.186 106.785C196.186 108.414 197.135 109.527 198.651 109.527C199.196 109.576 199.738 109.414 200.165 109.073C200.593 108.732 200.872 108.239 200.945 107.697H200.101C200.049 108.02 199.879 108.313 199.623 108.517C199.368 108.722 199.045 108.823 198.719 108.803C197.658 108.803 197.105 108.197 197.075 106.972H201.005C201.031 106.448 200.957 105.923 200.788 105.426ZM197.053 106.27C197.18 105.254 197.71 104.709 198.547 104.709C198.749 104.708 198.949 104.749 199.134 104.828C199.32 104.908 199.488 105.024 199.628 105.17C199.767 105.316 199.876 105.488 199.947 105.678C200.018 105.867 200.05 106.068 200.041 106.27H197.053Z" fill="white"></path><path d="M158.114 108.227C158.114 108.227 158.114 108.048 158.114 107.891C158.114 107.734 158.114 107.42 158.114 107.062C158.114 106.494 158.114 106.128 158.114 105.792C158.114 105.045 158.032 104.761 157.756 104.507C157.297 104.149 156.724 103.969 156.142 103.999C154.767 103.999 153.961 104.656 153.901 105.784H154.745C154.827 105.037 155.201 104.709 156.037 104.709C156.874 104.709 157.218 105.015 157.218 105.62C157.218 106.061 157.001 106.233 156.299 106.315L155.552 106.412C155.27 106.441 154.992 106.502 154.723 106.591C154.408 106.687 154.135 106.887 153.949 107.159C153.763 107.43 153.675 107.757 153.699 108.085C153.698 108.298 153.741 108.508 153.827 108.702C153.913 108.896 154.04 109.069 154.198 109.211C154.356 109.352 154.543 109.458 154.746 109.522C154.948 109.585 155.162 109.605 155.373 109.58C155.733 109.596 156.092 109.528 156.421 109.381C156.75 109.235 157.041 109.014 157.27 108.735C157.261 108.836 157.274 108.937 157.308 109.032C157.343 109.127 157.397 109.213 157.469 109.284C157.54 109.355 157.626 109.41 157.721 109.444C157.816 109.479 157.917 109.492 158.017 109.482C158.224 109.485 158.429 109.45 158.622 109.378V108.705C158.553 108.742 158.476 108.759 158.398 108.758C158.204 108.735 158.114 108.586 158.114 108.227ZM157.293 107.435C157.332 107.695 157.276 107.961 157.136 108.183C156.963 108.413 156.737 108.598 156.476 108.72C156.216 108.843 155.929 108.899 155.642 108.885C155.514 108.903 155.385 108.894 155.261 108.857C155.138 108.821 155.024 108.758 154.927 108.674C154.83 108.59 154.752 108.486 154.699 108.369C154.645 108.251 154.618 108.124 154.618 107.996C154.613 107.841 154.653 107.689 154.733 107.556C154.812 107.424 154.928 107.317 155.066 107.249C155.392 107.097 155.746 107.013 156.105 107.002C156.852 106.905 157.016 106.875 157.263 106.688L157.293 107.435Z" fill="white"></path><path d="M165.735 103.999C164.136 103.999 163.157 105.052 163.157 106.785C163.157 108.519 164.158 109.527 165.697 109.527C167.236 109.527 168.222 108.496 168.222 106.778C168.268 106.046 168.033 105.325 167.565 104.761C167.33 104.513 167.046 104.316 166.731 104.185C166.416 104.054 166.076 103.99 165.735 103.999ZM165.697 108.803C164.674 108.803 164.031 108.056 164.031 106.756C164.031 105.456 164.681 104.716 165.72 104.716C166.758 104.716 167.348 105.508 167.348 106.778C167.348 108.048 166.721 108.803 165.675 108.803H165.697Z" fill="white"></path><path d="M193.75 104.873C193.572 104.587 193.32 104.354 193.02 104.2C192.72 104.046 192.384 103.976 192.047 103.999C191.721 103.99 191.397 104.052 191.098 104.181C190.799 104.31 190.531 104.503 190.314 104.746C189.85 105.32 189.62 106.049 189.671 106.785C189.671 108.474 190.613 109.535 192.107 109.535C192.447 109.56 192.787 109.487 193.087 109.324C193.386 109.161 193.632 108.915 193.795 108.616V109.363H194.602V102.139H193.75V104.873ZM192.159 108.803C191.195 108.803 190.545 107.981 190.545 106.778C190.545 105.575 191.151 104.716 192.137 104.716C192.351 104.711 192.565 104.75 192.763 104.833C192.961 104.915 193.14 105.038 193.287 105.194C193.64 105.635 193.813 106.193 193.773 106.756C193.773 108.048 193.175 108.803 192.159 108.803Z" fill="white"></path><path d="M208.304 108.728C206.809 108.728 205.898 107.57 205.898 105.784C205.88 105.108 206.053 104.439 206.399 103.857C206.593 103.515 206.88 103.235 207.226 103.049C207.572 102.862 207.964 102.777 208.356 102.803C208.817 102.771 209.274 102.904 209.646 103.178C210.018 103.451 210.281 103.848 210.388 104.298H211.344C211.293 103.784 211.076 103.301 210.724 102.923C210.425 102.6 210.059 102.346 209.651 102.181C209.243 102.015 208.803 101.942 208.363 101.967C207.916 101.947 207.469 102.023 207.053 102.189C206.637 102.355 206.261 102.608 205.95 102.93C205.252 103.707 204.887 104.726 204.934 105.769C204.934 108.063 206.234 109.505 208.281 109.505C208.678 109.532 209.076 109.479 209.452 109.347C209.827 109.216 210.172 109.009 210.465 108.74C210.758 108.471 210.993 108.145 211.155 107.782C211.318 107.419 211.405 107.026 211.412 106.629H210.455C210.291 108.011 209.559 108.728 208.304 108.728Z" fill="white"></path><path d="M185.323 108.227C185.323 108.227 185.323 108.048 185.323 107.891C185.323 107.734 185.323 107.421 185.323 107.062C185.323 106.494 185.323 106.128 185.323 105.792C185.323 105.045 185.234 104.761 184.965 104.507C184.505 104.15 183.932 103.97 183.351 103.999C181.976 103.999 181.162 104.656 181.11 105.784H181.954C182.029 105.037 182.41 104.709 183.246 104.709C184.083 104.709 184.427 105.015 184.427 105.62C184.427 106.061 184.21 106.233 183.508 106.315L182.761 106.412C182.479 106.441 182.2 106.501 181.931 106.591C181.617 106.687 181.344 106.887 181.158 107.159C180.972 107.43 180.884 107.757 180.908 108.085C180.906 108.298 180.95 108.508 181.036 108.702C181.122 108.896 181.249 109.069 181.407 109.211C181.565 109.352 181.752 109.458 181.954 109.522C182.157 109.585 182.371 109.605 182.581 109.58C182.942 109.596 183.3 109.528 183.63 109.381C183.959 109.235 184.25 109.014 184.479 108.735C184.47 108.836 184.483 108.937 184.517 109.032C184.551 109.127 184.606 109.213 184.678 109.284C184.749 109.355 184.835 109.41 184.93 109.444C185.025 109.479 185.126 109.492 185.226 109.482C185.433 109.485 185.638 109.449 185.831 109.378V108.706C185.762 108.742 185.685 108.76 185.607 108.758C185.42 108.735 185.323 108.586 185.323 108.227ZM184.501 107.435C184.544 107.696 184.485 107.963 184.337 108.183C184.17 108.409 183.949 108.592 183.696 108.714C183.442 108.836 183.162 108.895 182.88 108.885C182.753 108.903 182.623 108.894 182.5 108.857C182.377 108.821 182.262 108.758 182.165 108.674C182.068 108.59 181.99 108.486 181.937 108.369C181.884 108.251 181.857 108.124 181.857 107.996C181.852 107.841 181.892 107.689 181.971 107.557C182.051 107.424 182.167 107.317 182.305 107.249C182.631 107.097 182.984 107.013 183.343 107.002C184.091 106.905 184.255 106.875 184.501 106.688V107.435Z" fill="white"></path><path d="M215.565 103.999C215.22 103.981 214.876 104.055 214.567 104.212C214.259 104.369 213.998 104.605 213.81 104.895V104.559C213.815 104.465 213.815 104.37 213.81 104.275V102.154H212.958V109.378H213.81V106.905C213.765 106.449 213.816 105.988 213.959 105.553C214.071 105.293 214.26 105.074 214.501 104.924C214.741 104.775 215.021 104.702 215.304 104.716C215.484 104.702 215.665 104.731 215.831 104.801C215.998 104.871 216.145 104.981 216.26 105.119C216.44 105.421 216.516 105.772 216.477 106.121V109.415H217.336V106.016C217.366 105.605 217.299 105.193 217.142 104.813C216.984 104.541 216.752 104.319 216.473 104.175C216.193 104.031 215.878 103.97 215.565 103.999Z" fill="white"></path><path d="M173.415 102.154H172.563V103.199H173.415V102.154Z" fill="white"></path><path d="M177.449 108.803C176.485 108.803 175.888 108.056 175.888 106.756C175.888 105.456 176.523 104.709 177.524 104.709C177.85 104.689 178.171 104.797 178.42 105.008C178.669 105.22 178.827 105.519 178.861 105.844H179.757C179.736 105.574 179.661 105.311 179.535 105.071C179.41 104.83 179.238 104.618 179.029 104.446C178.82 104.273 178.578 104.145 178.318 104.068C178.058 103.992 177.785 103.968 177.516 103.999C176.022 103.999 175.028 105.097 175.028 106.845C175.028 108.481 175.992 109.527 177.479 109.527C177.824 109.553 178.17 109.494 178.487 109.355C178.803 109.215 179.081 109 179.294 108.728C179.584 108.369 179.761 107.932 179.802 107.473H178.928C178.919 107.657 178.873 107.838 178.793 108.005C178.714 108.172 178.602 108.321 178.465 108.445C178.327 108.568 178.167 108.663 177.992 108.725C177.818 108.786 177.633 108.813 177.449 108.803Z" fill="white"></path><path d="M173.415 104.148H172.563V109.378H173.415V104.148Z" fill="white"></path><path d="M170.688 102.154H169.836V109.37H170.688V102.154Z" fill="white"></path><path d="M110.473 105.426C110.305 104.994 110.007 104.625 109.62 104.369C109.233 104.114 108.777 103.984 108.314 103.999C106.887 103.999 105.871 105.157 105.871 106.785C105.871 108.414 106.819 109.527 108.336 109.527C108.881 109.577 109.425 109.414 109.853 109.073C110.282 108.732 110.562 108.239 110.637 107.697H109.785C109.734 108.02 109.564 108.313 109.308 108.517C109.053 108.722 108.73 108.823 108.403 108.803C107.342 108.803 106.79 108.197 106.76 106.972H110.689C110.716 106.448 110.642 105.923 110.473 105.426ZM106.737 106.27C106.864 105.254 107.402 104.709 108.231 104.709C108.433 104.708 108.633 104.749 108.819 104.828C109.005 104.908 109.173 105.024 109.312 105.17C109.452 105.316 109.561 105.488 109.632 105.678C109.703 105.867 109.735 106.068 109.726 106.27H106.737Z" fill="white"></path><path d="M113.065 105.239V104.148H112.266V109.378H113.117V107.338C113.117 106.158 113.229 105.725 113.618 105.329C113.767 105.181 113.944 105.064 114.139 104.986C114.335 104.907 114.543 104.869 114.753 104.873H115.03V103.976C114.609 103.939 114.187 104.043 113.831 104.271C113.476 104.5 113.206 104.84 113.065 105.239Z" fill="white"></path><path d="M222.76 102.154H221.908V109.37H222.76V102.154Z" fill="white"></path><path d="M140.916 104.873C140.738 104.587 140.486 104.354 140.186 104.2C139.886 104.046 139.55 103.976 139.213 103.999C138.887 103.99 138.563 104.052 138.264 104.181C137.965 104.31 137.697 104.503 137.48 104.746C137.013 105.319 136.781 106.048 136.83 106.785C136.83 108.474 137.771 109.535 139.265 109.535C139.607 109.561 139.948 109.488 140.249 109.325C140.55 109.162 140.797 108.916 140.961 108.616V109.363H141.768V102.139H140.916V104.873ZM139.325 108.803C138.361 108.803 137.711 107.981 137.711 106.778C137.711 105.575 138.317 104.716 139.303 104.716C139.516 104.709 139.729 104.749 139.926 104.831C140.123 104.914 140.301 105.037 140.446 105.194C140.806 105.631 140.983 106.191 140.939 106.756C140.939 108.048 140.341 108.803 139.325 108.803Z" fill="white"></path><path d="M228.968 105.426C228.8 104.995 228.504 104.627 228.118 104.371C227.733 104.116 227.278 103.986 226.816 103.999C225.382 103.999 224.366 105.157 224.366 106.785C224.366 108.414 225.322 109.527 226.831 109.527C227.377 109.578 227.921 109.416 228.35 109.075C228.779 108.734 229.06 108.24 229.132 107.697H228.288C228.234 108.02 228.061 108.312 227.805 108.516C227.549 108.72 227.226 108.822 226.899 108.803C225.838 108.803 225.285 108.197 225.255 106.972H229.177C229.21 106.448 229.139 105.922 228.968 105.426ZM225.233 106.27C225.367 105.254 225.898 104.709 226.764 104.709C226.966 104.708 227.166 104.749 227.352 104.828C227.538 104.908 227.706 105.024 227.845 105.17C227.985 105.316 228.093 105.488 228.164 105.678C228.235 105.867 228.267 106.068 228.258 106.27H225.233Z" fill="white"></path><path d="M119.856 106.868C119.39 106.572 118.865 106.38 118.317 106.307C117.983 106.238 117.654 106.148 117.331 106.038C117.209 106.003 117.102 105.928 117.027 105.825C116.953 105.722 116.915 105.598 116.92 105.471C116.92 105.015 117.323 104.723 118.018 104.723C118.713 104.723 119.176 105.022 119.273 105.672H120.103C120.115 105.295 119.985 104.926 119.737 104.641C119.513 104.418 119.243 104.246 118.947 104.136C118.65 104.026 118.333 103.982 118.018 104.006C116.8 104.006 116.024 104.596 116.024 105.538C116.024 106.218 116.412 106.636 117.271 106.853L118.123 107.069C118.392 107.123 118.657 107.198 118.915 107.293C119.273 107.443 119.438 107.652 119.438 107.936C119.438 108.466 118.922 108.81 118.153 108.81C117.383 108.81 116.838 108.466 116.748 107.727H115.904C115.949 108.885 116.741 109.535 118.145 109.535C119.55 109.535 120.349 108.885 120.349 107.854C120.347 107.663 120.301 107.475 120.216 107.304C120.131 107.133 120.008 106.984 119.856 106.868Z" fill="white"></path><path d="M99.0572 102.154H98.2055V103.199H99.0572V102.154Z" fill="white"></path><path d="M103.316 106.733C103.183 107.078 103.068 107.43 102.972 107.787C102.905 108.003 102.852 108.183 102.763 108.534C102.569 107.861 102.419 107.391 102.217 106.815L101.269 104.163H100.32L102.27 109.393H103.189L105.094 104.163H104.197L103.316 106.733Z" fill="white"></path><path d="M122.74 104.148H121.888V109.378H122.74V104.148Z" fill="white"></path><path d="M135.194 108.227C135.194 108.227 135.194 108.048 135.194 107.891C135.194 107.734 135.194 107.421 135.194 107.062C135.194 106.494 135.194 106.128 135.194 105.792C135.194 105.045 135.104 104.761 134.835 104.507C134.375 104.15 133.803 103.97 133.221 103.999C131.847 103.999 131.04 104.656 130.98 105.784H131.824C131.899 105.037 132.28 104.709 133.117 104.709C133.954 104.709 134.297 105.015 134.297 105.62C134.297 106.061 134.081 106.233 133.378 106.315L132.631 106.412C132.352 106.441 132.076 106.502 131.809 106.591C131.495 106.687 131.222 106.887 131.036 107.159C130.85 107.43 130.762 107.757 130.786 108.085C130.784 108.298 130.828 108.508 130.914 108.702C131 108.896 131.127 109.069 131.285 109.211C131.443 109.352 131.63 109.458 131.832 109.522C132.035 109.585 132.249 109.605 132.459 109.58C132.82 109.596 133.178 109.528 133.508 109.381C133.837 109.235 134.128 109.014 134.357 108.735C134.348 108.836 134.361 108.937 134.395 109.032C134.429 109.127 134.484 109.213 134.556 109.284C134.627 109.355 134.713 109.41 134.808 109.444C134.903 109.479 135.004 109.492 135.104 109.482C135.311 109.485 135.516 109.45 135.709 109.378V108.706C135.64 108.742 135.563 108.76 135.485 108.758C135.291 108.735 135.194 108.586 135.194 108.227ZM134.372 107.435C134.411 107.695 134.356 107.961 134.215 108.183C134.042 108.413 133.816 108.597 133.555 108.719C133.295 108.842 133.008 108.899 132.721 108.885C132.594 108.903 132.464 108.894 132.341 108.857C132.217 108.821 132.103 108.758 132.006 108.674C131.909 108.59 131.831 108.486 131.778 108.369C131.725 108.251 131.697 108.124 131.697 107.996C131.693 107.841 131.733 107.689 131.812 107.557C131.892 107.424 132.007 107.317 132.146 107.249C132.472 107.097 132.825 107.013 133.184 107.002C133.931 106.905 134.096 106.875 134.342 106.688L134.372 107.435Z" fill="white"></path><path d="M128.44 104.873C128.264 104.587 128.013 104.354 127.714 104.2C127.415 104.046 127.08 103.976 126.744 103.999C126.418 103.99 126.094 104.052 125.795 104.181C125.496 104.31 125.228 104.503 125.011 104.746C124.544 105.319 124.312 106.048 124.361 106.785C124.361 108.474 125.302 109.535 126.797 109.535C127.137 109.561 127.477 109.489 127.777 109.326C128.077 109.163 128.323 108.916 128.485 108.616V109.363H129.299V102.139H128.44V104.873ZM126.849 108.803C125.885 108.803 125.235 107.981 125.235 106.778C125.235 105.575 125.84 104.716 126.826 104.716C127.041 104.711 127.254 104.75 127.452 104.833C127.651 104.915 127.829 105.038 127.977 105.194C128.334 105.632 128.508 106.192 128.463 106.756C128.463 108.048 127.872 108.803 126.826 108.803H126.849Z" fill="white"></path><path d="M122.74 102.154H121.888V103.199H122.74V102.154Z" fill="white"></path><path d="M225.651 95.8033H228.43C228.519 95.8055 228.606 95.7842 228.684 95.7416C228.762 95.6989 228.827 95.6364 228.872 95.5604C228.918 95.4844 228.942 95.3978 228.943 95.3092C228.944 95.2206 228.922 95.1333 228.878 95.0562L225.24 88.3324C226.363 87.9433 227.341 87.2218 228.044 86.2637C228.748 85.3056 229.143 84.1563 229.177 82.9683C229.165 81.4419 228.548 79.9827 227.461 78.9111C226.374 77.8395 224.906 77.2431 223.38 77.2531H215.782C215.647 77.2531 215.518 77.3066 215.423 77.4019C215.327 77.4971 215.274 77.6264 215.274 77.7611V95.355C215.276 95.4885 215.33 95.6158 215.425 95.7094C215.52 95.8031 215.649 95.8556 215.782 95.8556H218.225C218.356 95.8501 218.48 95.7956 218.573 95.7029C218.665 95.6102 218.72 95.486 218.725 95.355V88.5715H221.706L225.248 95.6165C225.293 95.68 225.354 95.7307 225.424 95.7634C225.495 95.7962 225.573 95.8099 225.651 95.8033ZM223.103 85.6802H218.77V80.3909H223.103C223.791 80.3945 224.45 80.6656 224.941 81.1467C225.431 81.6279 225.716 82.2812 225.733 82.9683C225.733 83.6735 225.459 84.3512 224.968 84.8575C224.477 85.3637 223.808 85.6589 223.103 85.6802Z" fill="white"></path><path d="M182.41 95.8033H184.86C184.991 95.7978 185.115 95.7433 185.208 95.6506C185.301 95.5579 185.355 95.4337 185.361 95.3028V86.8233L191.502 77.9703C191.547 77.8953 191.571 77.8095 191.572 77.722C191.573 77.6344 191.551 77.5482 191.507 77.4721C191.464 77.396 191.401 77.3329 191.325 77.2892C191.25 77.2454 191.163 77.2226 191.076 77.2232H188.341C188.256 77.2254 188.173 77.2483 188.099 77.29C188.025 77.3316 187.962 77.3908 187.916 77.4623L183.665 83.5735L179.406 77.4623C179.361 77.3914 179.3 77.3325 179.227 77.2908C179.154 77.2492 179.072 77.226 178.988 77.2232H176.276C176.188 77.2226 176.102 77.2454 176.027 77.2892C175.951 77.3329 175.888 77.396 175.844 77.4721C175.801 77.5482 175.779 77.6344 175.78 77.722C175.781 77.8095 175.805 77.8953 175.85 77.9703L181.909 86.8457V95.3028C181.909 95.4355 181.962 95.5628 182.056 95.6567C182.15 95.7506 182.277 95.8033 182.41 95.8033Z" fill="white"></path><path d="M68.5537 95.8033H79.3715C79.505 95.8033 79.633 95.7508 79.7281 95.6571C79.8232 95.5635 79.8776 95.4362 79.8795 95.3027V93.1212C79.8795 92.9865 79.826 92.8573 79.7307 92.762C79.6355 92.6667 79.5062 92.6132 79.3715 92.6132H71.542V87.9663H78.1089C78.2424 87.9644 78.3697 87.91 78.4633 87.8149C78.557 87.7198 78.6095 87.5918 78.6095 87.4583V85.2544C78.6058 85.1221 78.5521 84.9961 78.4592 84.9018C78.3663 84.8076 78.2412 84.752 78.1089 84.7464H71.542V80.3909H79.4088C79.5436 80.3909 79.6728 80.3373 79.7681 80.2421C79.8633 80.1468 79.9169 80.0176 79.9169 79.8828V77.7312C79.9169 77.5965 79.8633 77.4673 79.7681 77.372C79.6728 77.2767 79.5436 77.2232 79.4088 77.2232H68.5537C68.4873 77.2232 68.4216 77.2364 68.3604 77.262C68.2992 77.2876 68.2437 77.3252 68.1971 77.3725C68.1505 77.4197 68.1138 77.4758 68.0891 77.5374C68.0644 77.599 68.0521 77.6649 68.0531 77.7312V95.3251C68.0589 95.454 68.1142 95.5756 68.2074 95.6647C68.3007 95.7537 68.4247 95.8034 68.5537 95.8033Z" fill="white"></path><path d="M201.976 76.9319C200.717 76.9298 199.471 77.1772 198.309 77.6597C197.146 78.1422 196.091 78.8502 195.204 79.7428C194.317 80.6355 193.616 81.695 193.14 82.8603C192.665 84.0256 192.426 85.2735 192.436 86.532C192.428 87.787 192.669 89.0311 193.146 90.1922C193.622 91.3533 194.325 92.4082 195.212 93.2956C196.1 94.1831 197.154 94.8856 198.316 95.3622C199.477 95.8389 200.721 96.0802 201.976 96.0722C203.232 96.0801 204.477 95.839 205.639 95.3626C206.802 94.8862 207.858 94.1842 208.747 93.297C209.637 92.4098 210.341 91.3551 210.82 90.1939C211.299 89.0327 211.543 87.7881 211.539 86.532C211.545 85.2725 211.303 84.024 210.825 82.8586C210.348 81.6932 209.644 80.6338 208.755 79.7415C207.866 78.8492 206.81 78.1415 205.646 77.6593C204.483 77.1771 203.235 76.9299 201.976 76.9319ZM201.976 92.6207C200.363 92.6187 198.816 91.9776 197.675 90.8378C196.534 89.698 195.891 88.1523 195.887 86.5394C195.887 84.9197 196.527 83.3656 197.667 82.2154C198.808 81.0652 200.356 80.4121 201.976 80.3983C203.597 80.414 205.147 81.067 206.29 82.2161C207.434 83.3653 208.079 84.9182 208.087 86.5394C208.075 88.1531 207.426 89.6968 206.282 90.8344C205.137 91.972 203.59 92.6113 201.976 92.6132V92.6207Z" fill="white"></path><path d="M108.291 95.3027V80.361H112.355C112.49 80.361 112.619 80.3075 112.715 80.2122C112.81 80.1169 112.863 79.9877 112.863 79.853V77.7312C112.863 77.5965 112.81 77.4673 112.715 77.372C112.619 77.2767 112.49 77.2232 112.355 77.2232H100.738C100.672 77.2232 100.606 77.2364 100.545 77.262C100.484 77.2876 100.428 77.3252 100.382 77.3725C100.335 77.4197 100.298 77.4758 100.274 77.5374C100.249 77.599 100.237 77.6649 100.238 77.7312V79.9052C100.237 79.9716 100.249 80.0375 100.274 80.0991C100.298 80.1607 100.335 80.2168 100.382 80.2641C100.428 80.3113 100.484 80.3489 100.545 80.3745C100.606 80.4001 100.672 80.4133 100.738 80.4133H104.81V95.3551C104.815 95.486 104.87 95.6102 104.962 95.7029C105.055 95.7956 105.179 95.8501 105.31 95.8556H107.783C107.853 95.8537 107.922 95.8378 107.986 95.8088C108.05 95.7797 108.107 95.7382 108.154 95.6866C108.202 95.6351 108.238 95.5745 108.262 95.5086C108.285 95.4426 108.295 95.3727 108.291 95.3027Z" fill="white"></path><path d="M50.6684 95.3028V83.8723L61.8299 96.0723H62.4649C62.5952 96.0743 62.7211 96.0255 62.8159 95.9363C62.9108 95.847 62.9671 95.7242 62.9729 95.5941V77.7312C62.9692 77.5977 62.9144 77.4706 62.82 77.3762C62.7255 77.2817 62.5985 77.227 62.4649 77.2232H60.0219C59.9552 77.2232 59.8892 77.2364 59.8275 77.2619C59.7659 77.2874 59.7099 77.3249 59.6627 77.372C59.6156 77.4192 59.5781 77.4752 59.5526 77.5368C59.5271 77.5984 59.5139 77.6645 59.5139 77.7312V88.706L48.3823 76.9319H47.7174C47.5872 76.9298 47.4613 76.9786 47.3664 77.0678C47.2716 77.1571 47.2152 77.2799 47.2094 77.41V95.3028C47.215 95.435 47.2706 95.5602 47.3649 95.6531C47.4591 95.746 47.5851 95.7996 47.7174 95.8033H50.138C50.2062 95.8074 50.2745 95.7974 50.3388 95.7741C50.403 95.7508 50.4617 95.7146 50.5114 95.6677C50.5611 95.6208 50.6007 95.5642 50.6277 95.5015C50.6547 95.4387 50.6685 95.3711 50.6684 95.3028Z" fill="white"></path><path d="M155.036 95.8033H157.457C157.534 95.81 157.611 95.7974 157.682 95.7666C157.753 95.7358 157.815 95.6877 157.862 95.6268C157.91 95.5659 157.941 95.4941 157.954 95.418C157.967 95.3418 157.96 95.2637 157.935 95.1907L154.797 77.3353C154.786 77.2189 154.73 77.1117 154.64 77.0363C154.551 76.961 154.436 76.9235 154.319 76.9318H153.893C153.8 76.923 153.706 76.9443 153.625 76.9927C153.544 77.0411 153.481 77.114 153.445 77.2008L147.595 89.7444H147.521L141.671 77.2008C141.629 77.1167 141.564 77.0465 141.483 76.9988C141.402 76.951 141.309 76.9278 141.215 76.9318H140.797C140.68 76.9234 140.563 76.9607 140.473 77.0359C140.382 77.111 140.325 77.2183 140.311 77.3353L137.151 95.1907C137.13 95.266 137.128 95.3452 137.145 95.4215C137.161 95.4979 137.196 95.5692 137.246 95.6293C137.295 95.6894 137.359 95.7366 137.431 95.7669C137.503 95.7972 137.581 95.8097 137.659 95.8033H140.05C140.162 95.7982 140.269 95.7568 140.355 95.6854C140.441 95.6139 140.502 95.5163 140.528 95.4073L142.067 85.3291H142.149L146.848 95.7883C146.887 95.8766 146.951 95.9515 147.032 96.0034C147.113 96.0553 147.208 96.0818 147.304 96.0797H147.782C147.879 96.085 147.975 96.0598 148.057 96.0075C148.139 95.9552 148.202 95.8785 148.238 95.7883L152.885 85.3291H152.967L154.536 95.4073C154.57 95.5159 154.636 95.6117 154.725 95.6823C154.814 95.7529 154.923 95.7951 155.036 95.8033Z" fill="white"></path><path d="M20.4264 91.0742C20.3363 90.9896 20.2175 90.9426 20.0939 90.9426C19.9704 90.9426 19.8515 90.9896 19.7615 91.0742C18.6227 92.0314 17.1849 92.56 15.6973 92.5684C14.8999 92.5636 14.1114 92.4003 13.3777 92.088C12.6439 91.7756 11.9797 91.3204 11.4235 90.749C10.8673 90.1775 10.4303 89.5011 10.138 88.7592C9.84566 88.0172 9.70378 87.2246 9.72063 86.4273C9.69879 85.6306 9.83515 84.8374 10.1218 84.0937C10.4085 83.35 10.8397 82.6706 11.3907 82.0946C11.9416 81.5186 12.6013 81.0576 13.3315 80.7383C14.0618 80.4189 14.8481 80.2475 15.645 80.2339C17.1539 80.2477 18.6074 80.8047 19.7391 81.8029C19.7797 81.8515 19.8306 81.8906 19.888 81.9175C19.9455 81.9444 20.0081 81.9583 20.0715 81.9583C20.1349 81.9583 20.1976 81.9444 20.255 81.9175C20.3125 81.8906 20.3633 81.8515 20.404 81.8029L22.0251 80.1294C22.0778 80.0824 22.1199 80.0249 22.1488 79.9605C22.1776 79.8961 22.1925 79.8264 22.1925 79.7559C22.1925 79.6853 22.1776 79.6155 22.1488 79.5512C22.1199 79.4868 22.0778 79.4293 22.0251 79.3823C21.17 78.5671 20.1621 77.9289 19.0595 77.5046C17.9569 77.0802 16.7812 76.8779 15.6002 76.9094C14.3387 76.9065 13.089 77.1528 11.9229 77.6342C10.7569 78.1156 9.69737 78.8226 8.80534 79.7146C7.9133 80.6067 7.20628 81.6661 6.72488 82.8322C6.24348 83.9983 5.99718 85.248 6.00014 86.5095C5.99912 87.7677 6.24718 89.0136 6.73001 90.1755C7.21284 91.3373 7.92088 92.3921 8.81332 93.279C9.70575 94.1659 10.7649 94.8673 11.9298 95.3429C13.0946 95.8184 14.3421 96.0587 15.6002 96.0498C18.0072 96.0737 20.3265 95.1476 22.055 93.4724C22.1077 93.4254 22.1498 93.3679 22.1786 93.3035C22.2075 93.2391 22.2224 93.1694 22.2224 93.0988C22.2224 93.0283 22.2075 92.9585 22.1786 92.8942C22.1498 92.8298 22.1077 92.7722 22.055 92.7253L20.4264 91.0742Z" fill="white"></path><path d="M121.896 77.2232C121.861 77.1336 121.799 77.0572 121.719 77.0049C121.638 76.9526 121.543 76.927 121.447 76.9318H121.178C121.083 76.9292 120.989 76.9557 120.909 77.0077C120.829 77.0597 120.767 77.1349 120.73 77.2232L112.46 95.1085C112.419 95.1834 112.399 95.268 112.402 95.3533C112.406 95.4386 112.432 95.5213 112.479 95.5927C112.526 95.6641 112.591 95.7214 112.668 95.7585C112.745 95.7956 112.831 95.8111 112.916 95.8033H115.224C115.388 95.8032 115.548 95.7521 115.682 95.6571C115.816 95.5621 115.917 95.4278 115.971 95.2728L117.279 92.404H125.228L126.528 95.2728C126.576 95.4316 126.675 95.57 126.81 95.666C126.946 95.7621 127.109 95.8103 127.275 95.8033H129.583C129.668 95.8111 129.754 95.7956 129.831 95.7585C129.907 95.7214 129.973 95.6641 130.02 95.5927C130.066 95.5213 130.093 95.4386 130.096 95.3533C130.1 95.268 130.08 95.1834 130.039 95.1085L121.896 77.2232ZM118.608 89.453L121.216 83.6033H121.29L123.95 89.453H118.608Z" fill="white"></path><path d="M92.1018 96.0722C94.5112 96.0973 96.8333 95.1711 98.5642 93.4948C98.6168 93.4478 98.6589 93.3903 98.6877 93.3259C98.7166 93.2616 98.7315 93.1918 98.7315 93.1212C98.7315 93.0507 98.7166 92.981 98.6877 92.9166C98.6589 92.8522 98.6168 92.7946 98.5642 92.7477L96.9206 91.0443C96.8305 90.9598 96.7116 90.9127 96.5881 90.9127C96.4646 90.9127 96.3457 90.9598 96.2556 91.0443C95.1139 92.0015 93.6738 92.53 92.184 92.5385C91.3866 92.5338 90.5981 92.3704 89.8644 92.0581C89.1306 91.7457 88.4663 91.2906 87.9102 90.7191C87.354 90.1476 86.917 89.4712 86.6247 88.7293C86.3324 87.9874 86.1905 87.1947 86.2073 86.3974C86.1855 85.6007 86.3218 84.8076 86.6085 84.0639C86.8951 83.3202 87.3264 82.6407 87.8774 82.0648C88.4283 81.4888 89.088 81.0278 89.8182 80.7084C90.5485 80.389 91.3348 80.2176 92.1317 80.2041C93.6404 80.2192 95.0934 80.776 96.2258 81.773C96.2664 81.8216 96.3173 81.8608 96.3747 81.8876C96.4322 81.9145 96.4948 81.9284 96.5582 81.9284C96.6216 81.9284 96.6843 81.9145 96.7417 81.8876C96.7992 81.8608 96.85 81.8216 96.8907 81.773L98.5118 80.0995C98.5645 80.0525 98.6066 79.995 98.6354 79.9306C98.6643 79.8663 98.6792 79.7965 98.6792 79.726C98.6792 79.6554 98.6643 79.5857 98.6354 79.5213C98.6066 79.4569 98.5645 79.3994 98.5118 79.3524C97.6558 78.5363 96.6467 77.8977 95.5428 77.4733C94.4388 77.0488 93.2617 76.847 92.0794 76.8795C90.8185 76.8776 89.5697 77.1246 88.4045 77.6064C87.2392 78.0883 86.1807 78.7955 85.2894 79.6874C84.3982 80.5794 83.6918 81.6385 83.2109 82.8041C82.7299 83.9697 82.4839 85.2188 82.4868 86.4797C82.4789 87.7435 82.7223 88.9963 83.2029 90.1652C83.6836 91.3341 84.3919 92.3957 85.2866 93.2884C86.1813 94.181 87.2446 94.8868 88.4146 95.3647C89.5847 95.8427 90.838 96.0832 92.1018 96.0722Z" fill="white"></path><path d="M177.046 95.1085L168.828 77.2232C168.793 77.1336 168.731 77.0572 168.651 77.0049C168.57 76.9526 168.475 76.927 168.379 76.9318H168.11C168.015 76.9292 167.921 76.9557 167.841 77.0077C167.761 77.0597 167.698 77.1349 167.662 77.2232L159.392 95.1085C159.351 95.1834 159.331 95.268 159.334 95.3533C159.338 95.4386 159.364 95.5213 159.411 95.5927C159.458 95.6641 159.523 95.7214 159.6 95.7585C159.677 95.7956 159.763 95.8111 159.848 95.8033H162.156C162.32 95.8032 162.48 95.7521 162.614 95.6571C162.748 95.5621 162.849 95.4278 162.903 95.2728L164.211 92.404H172.152L173.46 95.2728C173.507 95.4316 173.607 95.57 173.742 95.666C173.877 95.7621 174.041 95.8103 174.207 95.8033H176.515C176.606 95.8285 176.702 95.8261 176.791 95.7962C176.88 95.7663 176.959 95.7103 177.016 95.6355C177.073 95.5607 177.106 95.4705 177.111 95.3766C177.117 95.2826 177.094 95.1893 177.046 95.1085ZM165.563 89.453L168.17 83.6033H168.245L170.904 89.453H165.563Z" fill="white"></path><path d="M43.4964 86.532C43.5023 85.2721 43.259 84.0235 42.7805 82.8581C42.3021 81.6926 41.5978 80.6333 40.7084 79.7411C39.8189 78.8488 38.7618 78.1413 37.5978 77.6591C36.4339 77.177 35.1861 76.9299 33.9262 76.9319C32.6678 76.9298 31.4214 77.1772 30.2591 77.6597C29.0968 78.1422 28.0416 78.8502 27.1545 79.7428C26.2675 80.6355 25.5661 81.695 25.0909 82.8603C24.6157 84.0256 24.3761 85.2735 24.3859 86.532C24.378 87.787 24.6193 89.0311 25.096 90.1922C25.5726 91.3533 26.275 92.4082 27.1625 93.2956C28.05 94.1831 29.1049 94.8856 30.2659 95.3622C31.427 95.8389 32.6712 96.0802 33.9262 96.0722C35.183 96.0811 36.429 95.8407 37.5922 95.3648C38.7553 94.8888 39.8126 94.1869 40.7026 93.2996C41.5927 92.4123 42.2979 91.3574 42.7774 90.1957C43.257 89.034 43.5014 87.7887 43.4964 86.532ZM33.9262 92.6132C32.3146 92.6093 30.7701 91.9673 29.6305 90.8277C28.4909 89.6881 27.8489 88.1436 27.8449 86.532C27.8449 84.9135 28.4836 83.3605 29.6224 82.2105C30.7612 81.0606 32.3079 80.4066 33.9262 80.3909C35.5473 80.4066 37.0971 81.0595 38.2407 82.2087C39.3842 83.3578 40.0296 84.9108 40.0374 86.532C40.0275 88.1469 39.3796 89.6925 38.2348 90.8317C37.09 91.9709 35.5412 92.6113 33.9262 92.6132Z" fill="white"></path><path d="M65.7372 68.1984C65.6843 68.1626 65.6201 68.1474 65.5568 68.1557C65.4935 68.1639 65.4354 68.1951 65.3935 68.2432C64.6429 68.9162 63.6746 69.2956 62.6666 69.3115C61.596 69.2958 60.5753 68.8558 59.8287 68.0882C59.0822 67.3207 58.6707 66.2882 58.6847 65.2175C58.6687 64.1441 59.0788 63.1081 59.8252 62.3366C60.5715 61.565 61.5933 61.1207 62.6666 61.101C63.6728 61.1326 64.6368 61.5129 65.3935 62.1768C65.5354 62.3188 65.6475 62.3337 65.7596 62.1768L66.1481 61.7884C66.1745 61.7626 66.1955 61.7318 66.2098 61.6978C66.2242 61.6638 66.2316 61.6273 66.2316 61.5904C66.2316 61.5535 66.2242 61.517 66.2098 61.4829C66.1955 61.4489 66.1745 61.4182 66.1481 61.3924C65.2095 60.5247 63.9746 60.0489 62.6965 60.0626C62.019 60.0606 61.3478 60.1926 60.7215 60.451C60.0952 60.7093 59.5261 61.089 59.0471 61.568C58.568 62.0471 58.1884 62.6162 57.93 63.2425C57.6716 63.8688 57.5397 64.54 57.5416 65.2175C57.5416 65.8927 57.6752 66.5612 57.9347 67.1846C58.1942 67.8079 58.5745 68.3737 59.0537 68.8494C59.5329 69.3251 60.1014 69.7013 60.7266 69.9563C61.3518 70.2113 62.0213 70.34 62.6965 70.335C63.9892 70.3503 65.2354 69.8535 66.163 68.9529C66.1881 68.9279 66.208 68.8983 66.2215 68.8656C66.2351 68.8329 66.2421 68.7978 66.2421 68.7624C66.2421 68.727 66.2351 68.692 66.2215 68.6593C66.208 68.6266 66.1881 68.5969 66.163 68.5719L65.7372 68.1984Z" fill="white"></path><path d="M85.2137 70.208H85.7142C85.7863 70.2081 85.8555 70.18 85.9071 70.1298C85.9587 70.0795 85.9887 70.0111 85.9907 69.9391V62.1769L92.5426 70.35H92.8041C92.8384 70.351 92.8726 70.3452 92.9047 70.333C92.9369 70.3208 92.9662 70.3023 92.9912 70.2787C93.0162 70.2551 93.0363 70.2269 93.0503 70.1955C93.0644 70.1642 93.0721 70.1304 93.073 70.096V60.4885C93.0712 60.4177 93.0422 60.3504 92.9922 60.3004C92.9421 60.2503 92.8748 60.2214 92.8041 60.2195H92.3036C92.2322 60.2195 92.1638 60.2478 92.1134 60.2983C92.0629 60.3487 92.0346 60.4171 92.0346 60.4885V68.0938L85.5947 60.0775H85.2361C85.2017 60.0765 85.1676 60.0823 85.1355 60.0945C85.1034 60.1068 85.074 60.1252 85.049 60.1488C85.024 60.1724 85.0039 60.2007 84.9899 60.232C84.9758 60.2634 84.9681 60.2972 84.9672 60.3315V69.9391C84.9686 70.0062 84.9944 70.0705 85.0398 70.12C85.0851 70.1695 85.1469 70.2008 85.2137 70.208Z" fill="white"></path><path d="M77.3394 60.0775C76.6636 60.0765 75.9942 60.2094 75.37 60.4685C74.7458 60.7276 74.1791 61.1077 73.7027 61.587C73.2262 62.0662 72.8493 62.6352 72.5939 63.2608C72.3384 63.8865 72.2095 64.5567 72.2144 65.2325C72.2104 65.9063 72.3403 66.5741 72.5966 67.1973C72.8528 67.8204 73.2303 68.3865 73.7071 68.8626C74.1839 69.3387 74.7505 69.7154 75.374 69.9707C75.9976 70.226 76.6656 70.355 77.3394 70.35C78.0139 70.3549 78.6827 70.2261 79.307 69.9709C79.9314 69.7158 80.499 69.3394 80.977 68.8635C81.455 68.3876 81.8338 67.8217 82.0917 67.1984C82.3496 66.5751 82.4814 65.907 82.4794 65.2325C82.4833 64.5557 82.3532 63.8848 82.0964 63.2585C81.8397 62.6323 81.4615 62.0631 80.9836 61.5839C80.5057 61.1046 79.9377 60.7247 79.3122 60.4662C78.6867 60.2077 78.0162 60.0756 77.3394 60.0775ZM77.3394 69.3564C76.2469 69.3524 75.2002 68.9167 74.4277 68.1442C73.6552 67.3716 73.2194 66.325 73.2155 65.2325C73.2174 64.1366 73.6516 63.0856 74.4237 62.3079C75.1958 61.5302 76.2436 61.0885 77.3394 61.0786C78.4373 61.0865 79.4877 61.5271 80.2626 62.3049C81.0375 63.0826 81.4743 64.1346 81.4783 65.2325C81.4723 66.327 81.0339 67.3747 80.2586 68.1473C79.4833 68.9198 78.4339 69.3544 77.3394 69.3564Z" fill="white"></path><path d="M37.9231 70.2081H41.1207C42.4483 70.2061 43.7211 69.6783 44.6605 68.7403C45.6 67.8022 46.1297 66.5302 46.1336 65.2026C46.1257 63.8782 45.5941 62.6108 44.6548 61.6772C43.7156 60.7435 42.445 60.2195 41.1207 60.2195H37.9231C37.8888 60.2205 37.855 60.2282 37.8236 60.2422C37.7923 60.2563 37.764 60.2764 37.7404 60.3013C37.7168 60.3263 37.6984 60.3557 37.6861 60.3878C37.6739 60.4199 37.6681 60.4541 37.6691 60.4885V69.9391C37.6681 69.9734 37.6739 70.0076 37.6861 70.0397C37.6984 70.0718 37.7168 70.1012 37.7404 70.1262C37.764 70.1512 37.7923 70.1713 37.8236 70.1853C37.855 70.1994 37.8888 70.2071 37.9231 70.2081ZM38.7524 61.1907H40.9115C41.4458 61.1677 41.9792 61.2555 42.478 61.4486C42.9768 61.6416 43.4302 61.9358 43.8098 62.3126C44.1894 62.6894 44.487 63.1407 44.6837 63.638C44.8805 64.1354 44.9723 64.668 44.9532 65.2026C44.9733 65.738 44.8823 66.2719 44.6861 66.7705C44.4898 67.2691 44.1926 67.7217 43.813 68.0999C43.4334 68.4781 42.9797 68.7737 42.4803 68.968C41.981 69.1624 41.4469 69.2514 40.9115 69.2294H38.7748L38.7524 61.1907Z" fill="white"></path><path d="M76.1964 59.054C76.2561 59.1661 76.3234 59.1661 76.5251 59.054L78.8261 58.0978C78.8522 58.0846 78.8752 58.0661 78.8936 58.0435C78.9121 58.0209 78.9257 57.9947 78.9334 57.9666C78.9412 57.9384 78.9429 57.9089 78.9386 57.8801C78.9343 57.8512 78.9239 57.8236 78.9083 57.7989L78.6543 57.2834C78.5796 57.1564 78.3629 57.1863 78.2807 57.2461L76.1366 58.4414C76.0906 58.4667 76.0563 58.509 76.0409 58.5592C76.0256 58.6094 76.0304 58.6637 76.0544 58.7104L76.1964 59.054Z" fill="white"></path><path d="M26.6122 70.208H27.1128C27.1841 70.208 27.2525 70.1797 27.303 70.1293C27.3534 70.0789 27.3818 70.0104 27.3818 69.9391V62.1769L33.9337 70.35H34.1952C34.2295 70.351 34.2637 70.3452 34.2958 70.333C34.3279 70.3208 34.3573 70.3023 34.3823 70.2787C34.4073 70.2551 34.4274 70.2269 34.4414 70.1955C34.4554 70.1642 34.4632 70.1304 34.4641 70.096V60.4885C34.4622 60.4177 34.4333 60.3504 34.3833 60.3004C34.3332 60.2503 34.2659 60.2214 34.1952 60.2195H33.6946C33.6226 60.2195 33.5534 60.2476 33.5018 60.2978C33.4501 60.348 33.4202 60.4164 33.4182 60.4885V68.0938L26.9783 60.0775H26.6197C26.5854 60.0765 26.5512 60.0823 26.5191 60.0945C26.487 60.1068 26.4576 60.1252 26.4326 60.1488C26.4076 60.1724 26.3876 60.2007 26.3735 60.232C26.3595 60.2634 26.3517 60.2972 26.3508 60.3315V69.9391C26.3526 70.0086 26.3805 70.0749 26.4289 70.1247C26.4774 70.1746 26.5428 70.2043 26.6122 70.208Z" fill="white"></path><path d="M7.70349 70.2081H8.25635C8.32782 70.2063 8.39598 70.1776 8.44722 70.1277C8.49847 70.0778 8.52903 70.0105 8.53277 69.9391V66.0393H12.6268C12.6975 66.0374 12.7648 66.0085 12.8149 65.9584C12.8649 65.9084 12.8939 65.8411 12.8957 65.7703V65.3595C12.8939 65.2887 12.8649 65.2214 12.8149 65.1714C12.7648 65.1213 12.6975 65.0924 12.6268 65.0905H8.53277V61.1758H13.3216C13.3936 61.1758 13.4628 61.1477 13.5145 61.0975C13.5661 61.0472 13.5961 60.9788 13.598 60.9068V60.4885C13.5961 60.4164 13.5661 60.348 13.5145 60.2978C13.4628 60.2476 13.3936 60.2195 13.3216 60.2195H7.70349C7.63216 60.2195 7.56376 60.2478 7.51332 60.2983C7.46288 60.3487 7.43455 60.4171 7.43455 60.4885V69.9391C7.43455 70.0104 7.46288 70.0789 7.51332 70.1293C7.56376 70.1797 7.63216 70.2081 7.70349 70.2081Z" fill="white"></path><path d="M48.0088 70.2081C48.06 70.21 48.1106 70.196 48.1534 70.1678C48.1962 70.1397 48.2293 70.0989 48.2479 70.0511L49.2938 67.6978H54.359L55.4124 70.0511C55.434 70.0983 55.4688 70.1382 55.5125 70.166C55.5563 70.1938 55.6071 70.2084 55.659 70.2081H56.2268C56.2715 70.2114 56.3162 70.2029 56.3566 70.1833C56.3969 70.1637 56.4313 70.1338 56.4564 70.0966C56.4814 70.0595 56.4962 70.0163 56.4991 69.9716C56.5021 69.9268 56.4932 69.8821 56.4733 69.842L52.1626 60.2344C52.1418 60.1867 52.1072 60.1463 52.0633 60.1183C52.0194 60.0904 51.9681 60.0762 51.9161 60.0775H51.7741C51.7234 60.0777 51.6737 60.0925 51.6312 60.1204C51.5888 60.1483 51.5554 60.1879 51.5351 60.2344L47.1945 69.842C47.1724 69.8813 47.1615 69.9259 47.163 69.9709C47.1646 70.016 47.1784 70.0598 47.203 70.0975C47.2277 70.1353 47.2622 70.1655 47.3028 70.185C47.3435 70.2045 47.3887 70.2125 47.4336 70.2081H48.0088ZM51.7442 62.132H51.8638C52.5586 63.686 53.2459 65.2623 53.9407 66.8163H49.6599L51.7442 62.132Z" fill="white"></path><path d="M22.9814 60.2195H22.436C22.3647 60.2195 22.2963 60.2478 22.2459 60.2983C22.1954 60.3487 22.1671 60.4171 22.1671 60.4885V66.4651C22.1965 66.836 22.1477 67.209 22.0239 67.5598C21.9001 67.9107 21.7041 68.2317 21.4485 68.5021C21.1929 68.7724 20.8834 68.9862 20.5401 69.1295C20.1967 69.2728 19.8271 69.3424 19.4552 69.334C19.0833 69.3375 18.7148 69.2631 18.3734 69.1158C18.0319 68.9684 17.725 68.7513 17.4725 68.4783C17.2199 68.2053 17.0272 67.8826 16.9068 67.5307C16.7863 67.1789 16.7408 66.8057 16.7731 66.4353V60.4586C16.7712 60.3866 16.7412 60.3181 16.6896 60.2679C16.6379 60.2177 16.5687 60.1896 16.4967 60.1896H15.9588C15.8881 60.1915 15.8208 60.2204 15.7707 60.2705C15.7207 60.3205 15.6917 60.3878 15.6898 60.4586V66.5249C15.6683 67.025 15.7495 67.5243 15.9285 67.9918C16.1075 68.4593 16.3806 68.8851 16.7307 69.2429C17.0808 69.6007 17.5005 69.8828 17.964 70.072C18.4275 70.2611 18.9248 70.3532 19.4253 70.3425C19.9301 70.3593 20.433 70.2719 20.9026 70.0857C21.3721 69.8995 21.7983 69.6186 22.1544 69.2603C22.5105 68.9021 22.789 68.4743 22.9724 68.0037C23.1558 67.533 23.2403 67.0296 23.2205 66.5249V60.481C23.2176 60.4163 23.192 60.3547 23.1484 60.3069C23.1047 60.2591 23.0456 60.2282 22.9814 60.2195Z" fill="white"></path><path d="M69.4726 60.2195H68.8973C68.7488 60.2195 68.6284 60.3399 68.6284 60.4884V69.9391C68.6284 70.0876 68.7488 70.2081 68.8973 70.2081H69.4726C69.6211 70.2081 69.7415 70.0876 69.7415 69.9391V60.4884C69.7415 60.3399 69.6211 60.2195 69.4726 60.2195Z" fill="white"></path><path d="M203.575 18.3377C205.004 19.0809 206.596 19.4582 208.207 19.436C209.515 19.4376 210.813 19.2048 212.039 18.7486C213.038 18.407 213.948 17.8458 214.702 17.1062C215.455 16.3667 216.034 15.4677 216.395 14.4753C216.734 13.5233 216.875 12.5121 216.81 11.5037C216.744 10.4952 216.473 9.51071 216.014 8.61067C213.6 4.41951 209.88 4.12813 206.907 4.34478C205.412 4.45685 202.678 4.97235 201.012 7.20614C199.779 8.84974 199.451 11.0088 200.018 13.6087C200.223 14.6114 200.648 15.5561 201.264 16.374C201.879 17.192 202.668 17.8628 203.575 18.3377ZM202.827 8.55089C203.963 7.05672 205.988 6.67571 207.093 6.59353C210.664 6.32457 212.622 7.20613 214.071 9.73876C214.369 10.3552 214.541 11.0246 214.578 11.7081C214.615 12.3915 214.517 13.0757 214.288 13.7207C214.029 14.4024 213.622 15.0181 213.096 15.5233C212.57 16.0285 211.939 16.4105 211.247 16.6419C210.187 17.0417 209.056 17.2227 207.923 17.1739C206.791 17.1251 205.68 16.8476 204.658 16.358C204.04 16.0322 203.502 15.574 203.083 15.016C202.663 14.4581 202.372 13.8142 202.23 13.1305C201.797 11.1956 201.998 9.65658 202.813 8.55089H202.827Z" fill="white"></path><path d="M162.007 20.8181H161.857C152.212 20.8181 143.628 48.3259 142.687 51.4487C142.651 51.5811 142.652 51.7209 142.69 51.8526C142.729 51.9844 142.802 52.1031 142.904 52.1958C139.407 52.0463 135.141 51.1125 132.123 49.1178C129.613 47.4518 128.231 45.2777 128.029 42.648C127.921 41.6688 128.014 40.6778 128.303 39.736C128.592 38.7942 129.071 37.9215 129.71 37.1718C132.982 33.3393 139.915 32.7341 139.983 32.7267L140.73 32.6669L140.558 30.4256L139.811 30.4854C139.49 30.4854 131.907 31.1428 128.007 35.715C127.168 36.6881 126.537 37.8221 126.151 39.0475C125.766 40.273 125.635 41.5642 125.766 42.8422C126.027 46.1966 127.745 48.9385 130.861 51.0079C134.731 53.5704 140.117 54.4819 143.867 54.4819C145.415 54.5236 146.96 54.3245 148.447 53.8916L149.194 53.6526L148.492 51.5832L147.745 51.8148C146.774 52.103 145.769 52.2588 144.756 52.2779C144.782 52.2372 144.804 52.1948 144.824 52.1509C147.267 44.0749 155.089 23.1117 161.835 23.1117H161.925C162.881 23.1117 164.584 23.8139 167.259 26.8471C170.606 30.6722 174.476 37.0672 178.166 44.8818C177.02 46.619 176.035 48.457 175.223 50.3729C172.75 56.5139 175.394 62.4383 178.689 65.9272C180.729 68.0789 183.022 69.3638 184.83 69.3638C185.18 69.3669 185.528 69.3139 185.861 69.207C186.421 69.0068 186.907 68.6408 187.254 68.1577C187.601 67.6745 187.793 67.0972 187.804 66.5025C188.08 63.8204 185.772 56.4392 181.917 47.6908C181.536 46.8242 181.169 45.9725 180.766 45.1283C188.551 33.668 202.305 20.8554 205.928 21.7594C208.983 22.5065 216.664 44.9864 222.035 65.3744C222.085 65.5658 222.208 65.7297 222.379 65.8301C222.465 65.8803 222.56 65.9128 222.659 65.9256C222.758 65.9384 222.858 65.9313 222.954 65.9048L223.701 65.718C223.797 65.6937 223.887 65.6505 223.967 65.591C224.046 65.5315 224.112 65.4567 224.162 65.3712C224.213 65.2857 224.245 65.1911 224.258 65.0929C224.271 64.9947 224.265 64.8948 224.239 64.7991C222.319 57.5076 212.45 21.0497 206.503 19.5704C201.43 18.3153 186.87 32.4951 179.653 42.7302C176.037 35.2593 172.264 29.1257 168.984 25.3753C166.422 22.4019 164.046 20.8779 162.007 20.8181ZM185.166 67.0554C184.337 67.3392 182.26 66.3829 180.355 64.3658C177.531 61.3775 175.26 56.357 177.367 51.2021C177.932 49.8692 178.602 48.5827 179.369 47.3546C183.56 56.6559 185.831 64.194 185.615 66.2485C185.503 66.9433 185.241 67.0255 185.159 67.0554H185.166Z" fill="white"></path><path d="M126.722 70.2603C129.468 70.255 132.203 69.8959 134.858 69.192C141.805 67.3243 146.908 63.9176 150.442 58.7328C151.853 56.7706 152.937 54.5934 153.654 52.2854C153.679 52.1902 153.685 52.0911 153.671 51.9938C153.657 51.8964 153.625 51.8027 153.575 51.718C153.525 51.6333 153.458 51.5594 153.38 51.5003C153.301 51.4413 153.212 51.3983 153.116 51.374L152.369 51.1797C152.274 51.1539 152.174 51.1474 152.076 51.1605C151.977 51.1736 151.883 51.2062 151.797 51.2563C151.712 51.3063 151.637 51.3729 151.577 51.4521C151.518 51.5313 151.475 51.6216 151.45 51.7176C150.79 53.7694 149.817 55.7072 148.567 57.4627C146.512 60.4511 142.792 64.6871 134.252 66.9806C127.036 68.9156 116.965 68.4748 110.346 61.4597C104.556 55.3186 103.017 47.4443 105.632 37.3885C107.873 28.924 116.3 22.7007 123.143 21.1318C129.371 19.691 135.863 19.8607 142.007 21.6249C142.098 21.6629 142.196 21.6825 142.295 21.6825C142.394 21.6825 142.491 21.6629 142.582 21.6249C142.673 21.5824 142.754 21.5221 142.821 21.4477C142.887 21.3732 142.938 21.2862 142.971 21.1916L143.217 20.4894C143.292 20.3023 143.292 20.0937 143.217 19.9066C143.174 19.8176 143.113 19.738 143.039 19.6726C142.965 19.6072 142.878 19.5572 142.784 19.5256C136.237 17.6168 129.309 17.4238 122.665 18.9653C115.194 20.6761 105.915 27.5269 103.487 36.8506C100.656 47.7207 102.374 56.2749 108.717 63.036C114.343 69.0202 121.597 70.2603 126.722 70.2603Z" fill="white"></path><path d="M122.725 17.755C123.811 17.7565 124.893 17.6056 125.937 17.3068C131.167 15.8126 133.311 12.7421 132.594 7.87853C131.877 3.01499 128.067 0.579485 122.605 1.34151C121.132 1.52311 119.718 2.02777 118.462 2.81943C117.207 3.6111 116.142 4.67023 115.344 5.92117C114.71 6.89027 114.297 7.98725 114.136 9.13395C113.975 10.2807 114.068 11.4489 114.41 12.5553C115.478 15.7603 118.661 17.755 122.725 17.755ZM117.256 7.10903C117.882 6.1398 118.714 5.3206 119.693 4.70979C120.672 4.09898 121.773 3.7116 122.919 3.5753C123.466 3.49497 124.018 3.45254 124.57 3.44831C129.008 3.44831 130.106 6.43665 130.368 8.20725C130.913 11.9053 129.404 13.9748 125.317 15.1402C121.873 16.1189 117.652 15.1402 116.539 11.8381C116.304 11.0455 116.247 10.2109 116.371 9.39366C116.495 8.57637 116.797 7.79638 117.256 7.10903Z" fill="white"></path><path d="M161.289 20.071C162.376 20.0729 163.457 19.922 164.502 19.6227C169.732 18.1286 171.883 15.058 171.166 10.1945C170.449 5.33095 166.631 2.90292 161.177 3.65748C159.703 3.83802 158.287 4.34218 157.03 5.13389C155.774 5.9256 154.708 6.9853 153.908 8.23713C153.274 9.20623 152.862 10.3032 152.701 11.4499C152.539 12.5966 152.633 13.7648 152.974 14.8712C154.043 18.0763 157.233 20.071 161.289 20.071ZM155.821 9.41752C156.448 8.45038 157.281 7.63315 158.26 7.02375C159.238 6.41435 160.339 6.02771 161.484 5.89126C162.033 5.8101 162.587 5.76767 163.142 5.76427C167.572 5.76427 168.671 8.75262 168.932 10.5232C169.478 14.2213 167.968 16.2907 163.882 17.4562C160.438 18.4423 156.217 17.4562 155.111 14.154C154.877 13.3605 154.819 12.5255 154.942 11.7073C155.065 10.8891 155.365 10.1076 155.821 9.41752Z" fill="white"></path></svg> 